<svg xmlns="http://www.w3.org/2000/svg" width="26.761" height="25.368" viewBox="0 0 26.761 25.368">
  <g id="Grupo_1" data-name="Grupo 1" transform="translate(-2019.201 -2403.124)">
    <path id="logo" d="M4.979,3A1,1,0,0,0,4,4.016V7.963q0,.042,0,.084v3.939a1,1,0,1,0,2,0V9h4v2.986a1,1,0,1,0,2,0v-3.8a1,1,0,0,0,0-.363V4.016a1,1,0,1,0-2,0V7h-4V4.016A1,1,0,0,0,4.979,3Z" transform="translate(2023.005 2405)" fill="#fff" fill-rule="evenodd"/>
    <path id="information" d="M12,10a1,1,0,0,0-1,1v6a1,1,0,0,0,2,0V11A1,1,0,0,0,12,10Zm0-4a1.25,1.25,0,1,0,1.25,1.25A1.25,1.25,0,0,0,12,6Z" transform="translate(2019.006 2401.008)" fill="#fff"/>
    <path id="coffee" d="M11.366,22.73h5.352a6.875,6.875,0,0,0,6.69-7.047V14.275h1.338a4.125,4.125,0,0,0,4.014-4.228,4.125,4.125,0,0,0-4.014-4.228H23.409V4.409A1.375,1.375,0,0,0,22.071,3H6.014A1.375,1.375,0,0,0,4.676,4.409V15.684A6.875,6.875,0,0,0,11.366,22.73ZM23.409,8.637h1.338a1.411,1.411,0,0,1,0,2.819H23.409ZM7.352,5.819H20.733v9.865a4.125,4.125,0,0,1-4.014,4.228H11.366a4.125,4.125,0,0,1-4.014-4.228Zm20.071,19.73H3.338a1.411,1.411,0,0,0,0,2.819H27.423a1.411,1.411,0,0,0,0-2.819Z" transform="translate(2017.201 2400.124)" fill="#fff"/>
  </g>
</svg>
